<svg xmlns="http://www.w3.org/2000/svg" xml:space="preserve" width="512px" height="512px" version="1.1" style="shape-rendering:geometricPrecision; text-rendering:geometricPrecision; image-rendering:optimizeQuality; fill-rule:evenodd; clip-rule:evenodd" viewBox="0 0 512 512" xmlns:xlink="http://www.w3.org/1999/xlink" xmlns:xodm="http://www.corel.com/coreldraw/odm/2003">
 <defs>
  <style type="text/css">
   
    .fil1 {fill:#00CCFF}
    .fil0 {fill:#1B74B9}
    .fil2 {fill:#F9F9F9}
   
  </style>
 </defs>
 <g id="Layer_x0020_1">
  <metadata id="CorelCorpID_0Corel-Layer"></metadata>
  <path class="fil0" d="M256 512c-128,0 -234,-103.13 -234,-234 0,-28.96 6.55,-60.05 17.06,-87.87 -8.65,-13.96 -15.06,-27.39 -15.06,-38.13 0,-40.28 42.13,-66.03 77.72,-50.25 43.39,-36.77 97.24,-56.85 154.18,-56.85 8.98,0 18.15,0 26.95,1.08 14.15,-46.03 72.83,-61.58 107.25,-26.88 12.2,12.3 18.9,28.6 18.9,45.9 0,8.37 -3.45,18.45 -8.8,29.25 109.47,86.75 121.62,249.38 21.1,349.45 -44.2,44 -102.9,68.3 -165.3,68.3zm-177 -330c-16.8,0 -30,-13.2 -30,-30 0,-17.1 13.5,-31 30,-31 16.8,0 31,14.2 31,31 0,16.5 -13.9,30 -31,30zm0 -47c-20.32,0 -21.75,33 0,33 23.13,0 21.49,-33 0,-33zm-27.59 48.43c1.24,0.99 2.11,2.38 2.47,3.89 2.16,5.04 20.23,28.8 25.22,36.18 14.55,-20.54 40.76,-54 40.8,-71.5 0.1,-23 -17.9,-41 -40.9,-41 -22.6,0 -41,18.4 -41,41 0,7.71 5.85,19.32 13.41,31.43zm-2.68 21.35c-1.35,3.99 -2.59,7.96 -3.72,11.92 3.39,2.11 9.67,5.1 18.01,8.23l-14.29 -20.15zm40.77 28.3c28.69,7.09 54.39,7.48 65.3,-0.48 13.6,-9.9 3.2,-34.3 -7.9,-53.1 -22,-36.58 3.04,-40.63 16.5,-73.3 3.39,-8.95 4.77,-19.02 3.93,-28.99 -18.79,8.15 -36.55,18.99 -52.97,32.37 12.07,10.02 19.64,25.19 19.64,42.42 0,22.01 -27.21,56.77 -44.5,81.08zm255.5 -133.08c-19.5,0 -36,-16 -36,-35 0,-19.9 16.1,-36 36,-36 19,0 35,16.5 35,36 0,19 -16,35 -35,35zm0 -57c-12.1,0 -22,9.9 -22,22 0,11.4 10.1,21 22,21 11.2,0 21,-9.8 21,-21 0,-11.9 -9.6,-22 -21,-22zm-64.79 16.8c-5.9,-0.63 -12.15,-0.76 -18.67,-0.79 -9.03,40.49 5.25,79.62 54.76,95.19 5.55,1.73 10.73,3.38 15.57,4.96 -21.84,-30.9 -54,-70.33 -51.66,-99.36zm72.86 106.65c47.99,17.75 47.64,28.13 48.13,74.25 0.74,34.66 55.15,44.19 74.59,46.52 2.92,-69.95 -27.35,-136.07 -82.39,-180.48 -11.87,20.24 -27.76,40.62 -40.33,59.71zm31.06 -71.78c0.6,-3.11 10.75,-16.65 10.77,-29.57 0.1,-28.2 -22.3,-51.1 -49.9,-51.1 -28.1,0 -51,22.9 -51,51 0,21.47 33.53,62.76 50.9,88.5 13.01,-18.79 27.95,-38.53 39.23,-58.83zm-146.13 200.33c-34.06,0 -34.72,-51 0,-51 13.8,0 25,11.2 25,25 0,14.6 -11,26 -25,26zm0 -37c-16.29,0 -15.6,23 0,23 14.21,0 14.86,-23 0,-23zm-16.48 72.88c-14.74,-20.29 -32.52,-45.12 -32.52,-61.88 0,-26 22.4,-48 49,-48 26,0 48,22 48,48 0,18.82 -23.25,48.74 -37.6,69.83 16.86,7.05 41.44,22.49 43.3,33.07 1.37,7.74 11.03,23.65 5.7,44.7 -4.9,19.4 -21.7,34.5 -49.9,44.9 -19.7,7.22 -33.63,18.12 -40.02,31.1 128.03,28.97 253.47,-61.18 267.28,-191.21 -21.72,-2.41 -86.82,-13.55 -87.76,-60.19 -0.43,-18.43 1.58,-36.6 -8.1,-45.7 -9.2,-8.6 -30.6,-16.4 -66.9,-27.8 -54.95,-17.35 -74.11,-61.54 -64.86,-108.53 -22.99,0.88 -45.24,5.17 -66.34,12.72 3.78,28.49 -6.71,48.06 -21.3,68.41 -8.8,12.3 -10.9,15.2 -0.6,32 0,0 0,0.1 0.1,0.1 43.82,73.99 -6.28,90.09 -71.4,74.7 -16.14,-3.89 -34.62,-10.14 -46.18,-16.37 -3.13,13.96 -4.91,27.71 -5.32,41.18 65.35,-8.29 82.39,17.69 82.4,17.69 8.6,10.5 15,20.5 20.2,28.5 14.5,22.5 18.4,28.6 39.1,17.7 14.04,-7.23 29.97,-7.28 43.72,-4.92zm16.48 -95.88c-19,0 -35,15.6 -35,34 0,14.3 22.23,43.09 34.8,60.5 11.92,-16.93 34.06,-45.93 34.1,-60.5 0.1,-18.1 -15.8,-34 -33.9,-34zm-68 -126l0 0zm-133.84 177c3.46,96.17 68.94,176.8 157.56,203 5.35,-12.34 18.16,-29.32 48.88,-40.6 55.34,-20.37 43.26,-51.74 35.8,-72.1 -4.84,-13.2 -62.51,-44.65 -94.2,-28.1 -43.1,22.5 -49.59,-17.01 -76.6,-49.7 -10.78,-12.77 -36.6,-17.22 -71.44,-12.5z" id="id_114" style="fill: rgb(27, 38, 44);"></path>
  <path class="fil1" d="M238 221c26,0 48,22 48,48 0,18.82 -23.25,48.74 -37.6,69.83 16.86,7.05 41.44,22.49 43.3,33.07 1.37,7.74 11.03,23.65 5.7,44.7 -4.9,19.4 -21.7,34.5 -49.9,44.9 -19.7,7.22 -33.63,18.12 -40.02,31.1 128.03,28.97 253.47,-61.18 267.28,-191.21 -21.72,-2.41 -86.82,-13.55 -87.76,-60.19 -0.43,-18.43 1.58,-36.6 -8.1,-45.7 -9.2,-8.6 -30.6,-16.4 -66.9,-27.8 -54.95,-17.35 -74.11,-61.54 -64.86,-108.53 -22.99,0.88 -45.24,5.17 -66.34,12.72 3.78,28.49 -6.71,48.06 -21.3,68.41 -8.8,12.3 -10.9,15.2 -0.6,32 0,0 0,0.1 0.1,0.1 43.82,73.99 -6.28,90.09 -71.4,74.7 -16.14,-3.89 -34.62,-10.14 -46.18,-16.37 -3.13,13.96 -4.91,27.71 -5.32,41.18 65.35,-8.29 82.39,17.69 82.4,17.69 8.6,10.5 15,20.5 20.2,28.5 14.5,22.5 18.4,28.6 39.1,17.7 14.04,-7.23 29.97,-7.28 43.72,-4.92 -14.74,-20.29 -32.52,-45.12 -32.52,-61.88 0,-26 22.4,-48 49,-48z" id="id_115" style="fill: rgb(187, 225, 250);"></path>
  <path class="fil2" d="M271.9 269c0.1,-18.1 -15.8,-34 -33.9,-34 -19,0 -35,15.6 -35,34 0,14.3 22.23,43.09 34.8,60.5 11.92,-16.93 34.06,-45.93 34.1,-60.5zm-33.9 -25c13.8,0 25,11.2 25,25 0,14.6 -11,26 -25,26 -34.06,0 -34.72,-51 0,-51z" id="id_116" style="fill: rgb(255, 255, 255);"></path>
  <path class="fil1" d="M238 281c14.21,0 14.86,-23 0,-23 -16.29,0 -15.6,23 0,23z" id="id_117" style="fill: rgb(0, 145, 255);"></path>
  <path class="fil1" d="M278.4 376.3c-4.84,-13.2 -62.51,-44.65 -94.2,-28.1 -43.1,22.5 -49.59,-17.01 -76.6,-49.7 -10.78,-12.77 -36.6,-17.22 -71.44,-12.5 3.46,96.17 68.94,176.8 157.56,203 5.35,-12.34 18.16,-29.32 48.88,-40.6 55.34,-20.37 43.26,-51.74 35.8,-72.1z" id="id_118" style="fill: rgb(15, 76, 117);"></path>
  <path class="fil1" d="M353.07 166.45c47.99,17.75 47.64,28.13 48.13,74.25 0.74,34.66 55.15,44.19 74.59,46.52 2.92,-69.95 -27.35,-136.07 -82.39,-180.48 -11.87,20.24 -27.76,40.62 -40.33,59.71z" id="id_119" style="fill: rgb(15, 76, 117);"></path>
  <path class="fil1" d="M154.8 232.6c13.6,-9.9 3.2,-34.3 -7.9,-53.1 -22,-36.58 3.04,-40.63 16.5,-73.3 3.39,-8.95 4.77,-19.02 3.93,-28.99 -18.79,8.15 -36.55,18.99 -52.97,32.37 12.07,10.02 19.64,25.19 19.64,42.42 0,22.01 -27.21,56.77 -44.5,81.08 28.69,7.09 54.39,7.48 65.3,-0.48z" id="id_120" style="fill: rgb(15, 76, 117);"></path>
  <path class="fil1" d="M261.54 59.01c-9.03,40.49 5.25,79.62 54.76,95.19 5.55,1.73 10.73,3.38 15.57,4.96 -21.84,-30.9 -54,-70.33 -51.66,-99.36 -5.9,-0.63 -12.15,-0.76 -18.67,-0.79z" id="id_121" style="fill: rgb(15, 76, 117);"></path>
  <path class="fil2" d="M294 65c0,21.47 33.53,62.76 50.9,88.5 13.01,-18.79 27.95,-38.53 39.23,-58.83 0.6,-3.11 10.75,-16.65 10.77,-29.57 0.1,-28.2 -22.3,-51.1 -49.9,-51.1 -28.1,0 -51,22.9 -51,51zm51 35c-19.5,0 -36,-16 -36,-35 0,-19.9 16.1,-36 36,-36 19,0 35,16.5 35,36 0,19 -16,35 -35,35z" id="id_122" style="fill: rgb(255, 255, 255);"></path>
  <path class="fil1" d="M323 65c0,11.4 10.1,21 22,21 11.2,0 21,-9.8 21,-21 0,-11.9 -9.6,-22 -21,-22 -12.1,0 -22,9.9 -22,22z" id="id_123" style="fill: rgb(0, 145, 255);"></path>
  <path class="fil2" d="M79.1 223.5c14.55,-20.54 40.76,-54 40.8,-71.5 0.1,-23 -17.9,-41 -40.9,-41 -22.6,0 -41,18.4 -41,41 0,7.71 5.85,19.32 13.41,31.43 1.24,0.99 2.11,2.38 2.47,3.89 2.16,5.04 20.23,28.8 25.22,36.18zm-0.1 -41.5c-16.8,0 -30,-13.2 -30,-30 0,-17.1 13.5,-31 30,-31 16.8,0 31,14.2 31,31 0,16.5 -13.9,30 -31,30z" id="id_124" style="fill: rgb(255, 255, 255);"></path>
  <path class="fil1" d="M79 168c23.13,0 21.49,-33 0,-33 -20.32,0 -21.75,33 0,33z" id="id_125" style="fill: rgb(0, 145, 255);"></path>
  <path class="fil1" d="M63.02 224.93l-14.29 -20.15c-1.35,3.99 -2.59,7.96 -3.72,11.92 3.39,2.11 9.67,5.1 18.01,8.23z" id="id_126" style="fill: rgb(15, 76, 117);"></path>
 </g>
</svg>